#define mem_width 16
#define mem_height 12
static unsigned char mem_bits[] = {
   0x00, 0x00, 0xfc, 0xff, 0xfe, 0xff, 0x23, 0x82, 0xab, 0xaa, 0x33, 0xba,
   0xab, 0xba, 0xff, 0xff, 0x00, 0x00, 0xb6, 0x6d, 0xb6, 0x6d, 0x00, 0x00 };
