#define Untitled_width 22
#define Untitled_height 12
static unsigned char Untitled_bits[] = {
   0x00, 0x00, 0x00, 0xfc, 0xff, 0x00, 0xfe, 0xff, 0x00, 0x23, 0x82, 0x00,
   0xab, 0xaa, 0x00, 0x33, 0xba, 0x00, 0xab, 0xba, 0x00, 0xff, 0xff, 0x00,
   0x00, 0x00, 0x00, 0xb6, 0x6d, 0x00, 0xb6, 0x6d, 0x00, 0x00, 0x00, 0x20 };
