#define vol_width 18
#define vol_height 10
static unsigned char vol_bits[] = {
   0x00, 0x80, 0x03, 0x00, 0xe0, 0x02, 0x00, 0x38, 0x02, 0x00, 0x1e, 0x02,
   0x80, 0x1f, 0x02, 0xe0, 0x1f, 0x02, 0xf8, 0x1f, 0x02, 0xfe, 0x1f, 0x02,
   0xff, 0x1f, 0x02, 0xff, 0xff, 0x03 };
